<?xml version="1.0" encoding="UTF-8"?><svg id="Layer_1" xmlns="http://www.w3.org/2000/svg" viewBox="0 0 1280 625.77"><defs><style>.cls-1{fill:#e1c2ce;}</style></defs><path class="cls-1" d="M954.76,596.7c-35.06,0-52.84-24.86-52.84-73.87,0-30.24,8.01-60.54,14.44-84.9l.8-3.05h-8.37l-.73,1.01c-71.91,100.69-144.47,160.81-194.07,160.81s-54.16-46.28-54.16-73.87c0-50.03,20.91-96.34,77.16-170.88l48.65-63.12c30.31-39.15,58.36-80.14,58.36-114.62,0-21.39-10.38-31.36-32.67-31.36-67.14,0-168.79,102.71-286.22,289.21l-95.32,154.11h-57.42l155.55-247.55c58.35-91.88,83.24-141.06,83.24-164.42,0-10.6-2.51-18.28-7.69-23.5-.32-.33-7.99-7.86-23.33-7.86-64.6.44-235.39,221.98-242.63,231.41-38.72,38.7-59.42,66.28-90.75,108.03l-19.31,25.65c-13.68,18.01-28.03,32.01-37.68,40.6-11.94,10.64-25.29,21.85-45.5,31.77-11.53,5.66-24.54,9.78-43.52,13.8-10.02-.05-19.08-2.46-26.6-7.2-23.5-14.83-27.01-49-27.01-68.04,0-72.56,29.99-133.58,89.06-227.61l82.17-129.87-3.51-10.65h-56.98c.43-1.69,1.5-3.15,3.94-4.76l120.97.4h39.17c15.57,0,26.95,3.92,34.8,11.98,10.15,10.42,14.76,28.07,14.08,53.94l-2.71,86.69h8.98l.73-.95c83.93-109.14,150.43-162.19,203.3-162.19,37.12,0,44.92,30.87,44.92,56.77s-8.56,68.09-32.59,111.98l-1.97,3.59h13.19l.73-.96c84.46-112.12,156.58-171.38,208.56-171.38,32,0,47.56,22.45,47.56,68.62s-17.34,87.15-63.96,148.49l-46.09,61.84c-55,72.48-75.44,109.96-75.44,138.27,0,24.59,14.67,39.27,39.27,39.27,80.8,0,188.47-152.36,245.46-243.19l116.37-185.15-3.56-10.64h-53.02c.43-1.69,1.5-3.15,3.94-4.76l116.48.39,1.93,7.68-137.58,216.18c-69.61,107.69-89.85,144.06-89.85,177.59,0,27.41,13.58,41.89,39.27,41.89,58.75,0,113.13-72.95,183.54-176.02l42.1-60.5c1.38-.36,3.33-.94,4.91-.94.54,0,1.04.07,1.49.21l-41.95,59.77c-70.5,103.03-129.25,181.83-190.09,181.83ZM174.21,324.19c-85.81,134.46-113.55,181.48-113.55,223.63,0,26.62,14.79,41.89,40.6,41.89,5.68,0,11.74-.95,19.1-3.02,2.15-.6,3.3-.92,4.45-1.31,5.81-1.99,11.71-4.68,17.54-8.02,1.23-.71,5.23-3.31,5.23-3.31,5.9-3.77,11.17-7.57,16.11-11.63l2.5-1.98c6.52-5.54,13.28-11.95,20.09-19.08,7.59-7.96,14.05-15.44,20.57-23.31,4.07-4.98,8-9.93,11.65-14.72,9.86-12.99,17.61-24.17,23.53-32.68,5.11-7.36,9.15-13.18,10.94-14.98,20.06-29.13,50.99-75.83,63.35-94.47,3.14-4.75,5.08-7.66,5.29-7.97,30.24-47.89,38.29-124.3,38.29-161.92,0-28.06-13.33-40.56-43.23-40.56h-32.59l-109.87,173.45Z"/><path class="cls-1" d="M253.33,89.6c-14.31,0-24.69-11.06-24.69-26.28,0-16.6,10.61-34.25,30.27-34.25,14.26,0,23.08,14.26,23.08,27.47,0,15.9-10.96,33.06-28.66,33.06Z"/><path class="cls-1" d="M1204.2,513.82c-14.31,0-24.69-11.06-24.69-26.28,0-16.61,10.61-34.26,30.27-34.26,14.26,0,23.08,14.26,23.08,27.48,0,15.9-10.96,33.06-28.66,33.06Z"/></svg>